<svg xmlns="http://www.w3.org/2000/svg" width="24" height="24" viewBox="0 0 24 24">
<defs><linearGradient id="w0" x1="0.15" y1="0.05" x2="0.85" y2="1"><stop offset="0" stop-color="#434B41"/><stop offset="0.55" stop-color="#14211B"/><stop offset="1" stop-color="#14211B"/></linearGradient><linearGradient id="w1" x1="0.15" y1="0.05" x2="0.85" y2="1"><stop offset="0" stop-color="#434B41"/><stop offset="0.55" stop-color="#14211B"/><stop offset="1" stop-color="#14211B"/></linearGradient><linearGradient id="w2" x1="0.15" y1="0.05" x2="0.85" y2="1"><stop offset="0" stop-color="#84725F"/><stop offset="0.55" stop-color="#594332"/><stop offset="1" stop-color="#45392B"/></linearGradient><linearGradient id="w3" x1="0.15" y1="0.05" x2="0.85" y2="1"><stop offset="0" stop-color="#84725F"/><stop offset="0.55" stop-color="#594332"/><stop offset="1" stop-color="#45392B"/></linearGradient><linearGradient id="w4" x1="0.15" y1="0.05" x2="0.85" y2="1"><stop offset="0" stop-color="#84725F"/><stop offset="0.55" stop-color="#594332"/><stop offset="1" stop-color="#45392B"/></linearGradient><linearGradient id="w5" x1="0.15" y1="0.05" x2="0.85" y2="1"><stop offset="0" stop-color="#84725F"/><stop offset="0.55" stop-color="#594332"/><stop offset="1" stop-color="#45392B"/></linearGradient><linearGradient id="w6" x1="0.15" y1="0.05" x2="0.85" y2="1"><stop offset="0" stop-color="#84725F"/><stop offset="0.55" stop-color="#594332"/><stop offset="1" stop-color="#45392B"/></linearGradient><linearGradient id="w7" x1="0.15" y1="0.05" x2="0.85" y2="1"><stop offset="0" stop-color="#84725F"/><stop offset="0.55" stop-color="#594332"/><stop offset="1" stop-color="#45392B"/></linearGradient><linearGradient id="w8" x1="0.15" y1="0.05" x2="0.85" y2="1"><stop offset="0" stop-color="#A6A698"/><stop offset="0.55" stop-color="#8A8D84"/><stop offset="1" stop-color="#686E66"/></linearGradient><linearGradient id="w9" x1="0.15" y1="0.05" x2="0.85" y2="1"><stop offset="0" stop-color="#A6A698"/><stop offset="0.55" stop-color="#8A8D84"/><stop offset="1" stop-color="#686E66"/></linearGradient><linearGradient id="w10" x1="0.15" y1="0.05" x2="0.85" y2="1"><stop offset="0" stop-color="#A6A698"/><stop offset="0.55" stop-color="#8A8D84"/><stop offset="1" stop-color="#686E66"/></linearGradient><linearGradient id="w11" x1="0.15" y1="0.05" x2="0.85" y2="1"><stop offset="0" stop-color="#A6A698"/><stop offset="0.55" stop-color="#8A8D84"/><stop offset="1" stop-color="#686E66"/></linearGradient><linearGradient id="w12" x1="0.15" y1="0.05" x2="0.85" y2="1"><stop offset="0" stop-color="#84725F"/><stop offset="0.55" stop-color="#594332"/><stop offset="1" stop-color="#45392B"/></linearGradient><linearGradient id="w13" x1="0.15" y1="0.05" x2="0.85" y2="1"><stop offset="0" stop-color="#84725F"/><stop offset="0.55" stop-color="#594332"/><stop offset="1" stop-color="#45392B"/></linearGradient><linearGradient id="w14" x1="0.15" y1="0.05" x2="0.85" y2="1"><stop offset="0" stop-color="#84725F"/><stop offset="0.55" stop-color="#594332"/><stop offset="1" stop-color="#45392B"/></linearGradient><linearGradient id="w15" x1="0.15" y1="0.05" x2="0.85" y2="1"><stop offset="0" stop-color="#AB8767"/><stop offset="0.55" stop-color="#91613E"/><stop offset="1" stop-color="#6E4F34"/></linearGradient><linearGradient id="w16" x1="0.15" y1="0.05" x2="0.85" y2="1"><stop offset="0" stop-color="#AB8767"/><stop offset="0.55" stop-color="#91613E"/><stop offset="1" stop-color="#6E4F34"/></linearGradient><linearGradient id="w17" x1="0.15" y1="0.05" x2="0.85" y2="1"><stop offset="0" stop-color="#AB8767"/><stop offset="0.55" stop-color="#91613E"/><stop offset="1" stop-color="#6E4F34"/></linearGradient><linearGradient id="w18" x1="0.15" y1="0.05" x2="0.85" y2="1"><stop offset="0" stop-color="#778A6D"/><stop offset="0.55" stop-color="#466647"/><stop offset="1" stop-color="#38523A"/></linearGradient><linearGradient id="w19" x1="0.15" y1="0.05" x2="0.85" y2="1"><stop offset="0" stop-color="#84725F"/><stop offset="0.55" stop-color="#594332"/><stop offset="1" stop-color="#45392B"/></linearGradient><linearGradient id="w20" x1="0.15" y1="0.05" x2="0.85" y2="1"><stop offset="0" stop-color="#84725F"/><stop offset="0.55" stop-color="#594332"/><stop offset="1" stop-color="#45392B"/></linearGradient><linearGradient id="w21" x1="0.15" y1="0.05" x2="0.85" y2="1"><stop offset="0" stop-color="#EAE1C8"/><stop offset="0.55" stop-color="#EAE1C8"/><stop offset="1" stop-color="#CCC6AF"/></linearGradient><linearGradient id="w22" x1="0.15" y1="0.05" x2="0.85" y2="1"><stop offset="0" stop-color="#778A6D"/><stop offset="0.55" stop-color="#466647"/><stop offset="1" stop-color="#38523A"/></linearGradient><linearGradient id="w23" x1="0.15" y1="0.05" x2="0.85" y2="1"><stop offset="0" stop-color="#EAE1C8"/><stop offset="0.55" stop-color="#EAE1C8"/><stop offset="1" stop-color="#D8D1BA"/></linearGradient><linearGradient id="w24" x1="0.15" y1="0.05" x2="0.85" y2="1"><stop offset="0" stop-color="#AB8767"/><stop offset="0.55" stop-color="#91613E"/><stop offset="1" stop-color="#6E4F34"/></linearGradient><linearGradient id="w25" x1="0.15" y1="0.05" x2="0.85" y2="1"><stop offset="0" stop-color="#AB8767"/><stop offset="0.55" stop-color="#91613E"/><stop offset="1" stop-color="#6E4F34"/></linearGradient><linearGradient id="w26" x1="0.15" y1="0.05" x2="0.85" y2="1"><stop offset="0" stop-color="#AB8767"/><stop offset="0.55" stop-color="#91613E"/><stop offset="1" stop-color="#6E4F34"/></linearGradient><linearGradient id="w27" x1="0.15" y1="0.05" x2="0.85" y2="1"><stop offset="0" stop-color="#AB8767"/><stop offset="0.55" stop-color="#91613E"/><stop offset="1" stop-color="#6E4F34"/></linearGradient><linearGradient id="w28" x1="0.15" y1="0.05" x2="0.85" y2="1"><stop offset="0" stop-color="#AB8767"/><stop offset="0.55" stop-color="#91613E"/><stop offset="1" stop-color="#6E4F34"/></linearGradient><linearGradient id="w29" x1="0.15" y1="0.05" x2="0.85" y2="1"><stop offset="0" stop-color="#AB8767"/><stop offset="0.55" stop-color="#91613E"/><stop offset="1" stop-color="#6E4F34"/></linearGradient><linearGradient id="w30" x1="0.15" y1="0.05" x2="0.85" y2="1"><stop offset="0" stop-color="#AB8767"/><stop offset="0.55" stop-color="#91613E"/><stop offset="1" stop-color="#6E4F34"/></linearGradient><linearGradient id="w31" x1="0.15" y1="0.05" x2="0.85" y2="1"><stop offset="0" stop-color="#AB8767"/><stop offset="0.55" stop-color="#91613E"/><stop offset="1" stop-color="#6E4F34"/></linearGradient><linearGradient id="w32" x1="0.15" y1="0.05" x2="0.85" y2="1"><stop offset="0" stop-color="#AB8767"/><stop offset="0.55" stop-color="#91613E"/><stop offset="1" stop-color="#6E4F34"/></linearGradient><linearGradient id="w33" x1="0.15" y1="0.05" x2="0.85" y2="1"><stop offset="0" stop-color="#AB8767"/><stop offset="0.55" stop-color="#91613E"/><stop offset="1" stop-color="#6E4F34"/></linearGradient><linearGradient id="w34" x1="0.15" y1="0.05" x2="0.85" y2="1"><stop offset="0" stop-color="#A6A698"/><stop offset="0.55" stop-color="#8A8D84"/><stop offset="1" stop-color="#686E66"/></linearGradient><linearGradient id="w35" x1="0.15" y1="0.05" x2="0.85" y2="1"><stop offset="0" stop-color="#AB8767"/><stop offset="0.55" stop-color="#91613E"/><stop offset="1" stop-color="#6E4F34"/></linearGradient><linearGradient id="w36" x1="0.15" y1="0.05" x2="0.85" y2="1"><stop offset="0" stop-color="#EAE1C8"/><stop offset="0.55" stop-color="#EAE1C8"/><stop offset="1" stop-color="#CCC6AF"/></linearGradient><linearGradient id="w37" x1="0.15" y1="0.05" x2="0.85" y2="1"><stop offset="0" stop-color="#EAE1C8"/><stop offset="0.55" stop-color="#EAE1C8"/><stop offset="1" stop-color="#C3BEA8"/></linearGradient><linearGradient id="w38" x1="0.15" y1="0.05" x2="0.85" y2="1"><stop offset="0" stop-color="#EAE1C8"/><stop offset="0.55" stop-color="#EAE1C8"/><stop offset="1" stop-color="#B6B29E"/></linearGradient><linearGradient id="w39" x1="0.15" y1="0.05" x2="0.85" y2="1"><stop offset="0" stop-color="#EAE1C8"/><stop offset="0.55" stop-color="#EAE1C8"/><stop offset="1" stop-color="#C3BEA8"/></linearGradient><linearGradient id="w40" x1="0.15" y1="0.05" x2="0.85" y2="1"><stop offset="0" stop-color="#EAE1C8"/><stop offset="0.55" stop-color="#EAE1C8"/><stop offset="1" stop-color="#B6B29E"/></linearGradient></defs>
<g transform="translate(1 1)" opacity="0.16"><path d="M11.1 4.4H12.9V8.6H11.1Z" fill="#14211B"/><path d="M18.9 9.6H20.7V13.6H18.9Z" fill="#14211B"/><path d="M11.1 15.4H12.9V19.6H11.1Z" fill="#14211B"/><path d="M3.3 9.6H5.1V13.6H3.3Z" fill="#14211B"/></g>
<path d="M11.1 4.4H12.9V8.6H11.1Z" fill="none" stroke="#F5F0DF" stroke-width="3.1" stroke-linejoin="round" stroke-linecap="round"/>
<path d="M18.9 9.6H20.7V13.6H18.9Z" fill="none" stroke="#F5F0DF" stroke-width="3.1" stroke-linejoin="round" stroke-linecap="round"/>
<path d="M11.1 15.4H12.9V19.6H11.1Z" fill="none" stroke="#F5F0DF" stroke-width="3.1" stroke-linejoin="round" stroke-linecap="round"/>
<path d="M3.3 9.6H5.1V13.6H3.3Z" fill="none" stroke="#F5F0DF" stroke-width="3.1" stroke-linejoin="round" stroke-linecap="round"/>
<path d="M12 6.6C15.4 7.6 18.4 9.4 19.8 11.6C18.4 14.4 15.4 16.4 12 17.4C8.6 16.4 5.6 14.4 4.2 11.6C5.6 9.4 8.6 7.6 12 6.6Z" fill="none" stroke="#F5F0DF" stroke-width="3.5" stroke-linejoin="round"/>
<path d="M12 6.6C15.4 7.6 18.4 9.4 19.8 11.6C18.4 14.4 15.4 16.4 12 17.4C8.6 16.4 5.6 14.4 4.2 11.6C5.6 9.4 8.6 7.6 12 6.6Z" fill="none" stroke="#25372D" stroke-width="2.3" stroke-linejoin="round"/>
<path d="M12 6.6C15.4 7.6 18.4 9.4 19.8 11.6C18.4 14.4 15.4 16.4 12 17.4C8.6 16.4 5.6 14.4 4.2 11.6C5.6 9.4 8.6 7.6 12 6.6Z" fill="none" stroke="#EAE1C8" stroke-width="1.3" stroke-linejoin="round"/>
<path d="M11.1 4.4H12.9V8.6H11.1Z" fill="none" stroke="#25372D" stroke-width="1.1" stroke-linejoin="round" stroke-linecap="round"/>
<path d="M11.1 4.4H12.9V8.6H11.1Z" fill="url(#w28)"/>
<path d="M18.9 9.6H20.7V13.6H18.9Z" fill="none" stroke="#25372D" stroke-width="1.1" stroke-linejoin="round" stroke-linecap="round"/>
<path d="M18.9 9.6H20.7V13.6H18.9Z" fill="url(#w29)"/>
<path d="M11.1 15.4H12.9V19.6H11.1Z" fill="none" stroke="#25372D" stroke-width="1.1" stroke-linejoin="round" stroke-linecap="round"/>
<path d="M11.1 15.4H12.9V19.6H11.1Z" fill="url(#w30)"/>
<path d="M3.3 9.6H5.1V13.6H3.3Z" fill="none" stroke="#25372D" stroke-width="1.1" stroke-linejoin="round" stroke-linecap="round"/>
<path d="M3.3 9.6H5.1V13.6H3.3Z" fill="url(#w31)"/>
</svg>
