<svg xmlns="http://www.w3.org/2000/svg" width="24" height="24" viewBox="0 0 24 24">
<defs><linearGradient id="w0" x1="0.15" y1="0.05" x2="0.85" y2="1"><stop offset="0" stop-color="#434B41"/><stop offset="0.55" stop-color="#14211B"/><stop offset="1" stop-color="#14211B"/></linearGradient><linearGradient id="w1" x1="0.15" y1="0.05" x2="0.85" y2="1"><stop offset="0" stop-color="#434B41"/><stop offset="0.55" stop-color="#14211B"/><stop offset="1" stop-color="#14211B"/></linearGradient><linearGradient id="w2" x1="0.15" y1="0.05" x2="0.85" y2="1"><stop offset="0" stop-color="#84725F"/><stop offset="0.55" stop-color="#594332"/><stop offset="1" stop-color="#45392B"/></linearGradient><linearGradient id="w3" x1="0.15" y1="0.05" x2="0.85" y2="1"><stop offset="0" stop-color="#84725F"/><stop offset="0.55" stop-color="#594332"/><stop offset="1" stop-color="#45392B"/></linearGradient><linearGradient id="w4" x1="0.15" y1="0.05" x2="0.85" y2="1"><stop offset="0" stop-color="#84725F"/><stop offset="0.55" stop-color="#594332"/><stop offset="1" stop-color="#45392B"/></linearGradient><linearGradient id="w5" x1="0.15" y1="0.05" x2="0.85" y2="1"><stop offset="0" stop-color="#84725F"/><stop offset="0.55" stop-color="#594332"/><stop offset="1" stop-color="#45392B"/></linearGradient><linearGradient id="w6" x1="0.15" y1="0.05" x2="0.85" y2="1"><stop offset="0" stop-color="#84725F"/><stop offset="0.55" stop-color="#594332"/><stop offset="1" stop-color="#45392B"/></linearGradient><linearGradient id="w7" x1="0.15" y1="0.05" x2="0.85" y2="1"><stop offset="0" stop-color="#84725F"/><stop offset="0.55" stop-color="#594332"/><stop offset="1" stop-color="#45392B"/></linearGradient><linearGradient id="w8" x1="0.15" y1="0.05" x2="0.85" y2="1"><stop offset="0" stop-color="#A6A698"/><stop offset="0.55" stop-color="#8A8D84"/><stop offset="1" stop-color="#686E66"/></linearGradient><linearGradient id="w9" x1="0.15" y1="0.05" x2="0.85" y2="1"><stop offset="0" stop-color="#A6A698"/><stop offset="0.55" stop-color="#8A8D84"/><stop offset="1" stop-color="#686E66"/></linearGradient><linearGradient id="w10" x1="0.15" y1="0.05" x2="0.85" y2="1"><stop offset="0" stop-color="#A6A698"/><stop offset="0.55" stop-color="#8A8D84"/><stop offset="1" stop-color="#686E66"/></linearGradient><linearGradient id="w11" x1="0.15" y1="0.05" x2="0.85" y2="1"><stop offset="0" stop-color="#A6A698"/><stop offset="0.55" stop-color="#8A8D84"/><stop offset="1" stop-color="#686E66"/></linearGradient><linearGradient id="w12" x1="0.15" y1="0.05" x2="0.85" y2="1"><stop offset="0" stop-color="#84725F"/><stop offset="0.55" stop-color="#594332"/><stop offset="1" stop-color="#45392B"/></linearGradient><linearGradient id="w13" x1="0.15" y1="0.05" x2="0.85" y2="1"><stop offset="0" stop-color="#84725F"/><stop offset="0.55" stop-color="#594332"/><stop offset="1" stop-color="#45392B"/></linearGradient><linearGradient id="w14" x1="0.15" y1="0.05" x2="0.85" y2="1"><stop offset="0" stop-color="#84725F"/><stop offset="0.55" stop-color="#594332"/><stop offset="1" stop-color="#45392B"/></linearGradient><linearGradient id="w15" x1="0.15" y1="0.05" x2="0.85" y2="1"><stop offset="0" stop-color="#AB8767"/><stop offset="0.55" stop-color="#91613E"/><stop offset="1" stop-color="#6E4F34"/></linearGradient><linearGradient id="w16" x1="0.15" y1="0.05" x2="0.85" y2="1"><stop offset="0" stop-color="#AB8767"/><stop offset="0.55" stop-color="#91613E"/><stop offset="1" stop-color="#6E4F34"/></linearGradient><linearGradient id="w17" x1="0.15" y1="0.05" x2="0.85" y2="1"><stop offset="0" stop-color="#AB8767"/><stop offset="0.55" stop-color="#91613E"/><stop offset="1" stop-color="#6E4F34"/></linearGradient><linearGradient id="w18" x1="0.15" y1="0.05" x2="0.85" y2="1"><stop offset="0" stop-color="#778A6D"/><stop offset="0.55" stop-color="#466647"/><stop offset="1" stop-color="#38523A"/></linearGradient><linearGradient id="w19" x1="0.15" y1="0.05" x2="0.85" y2="1"><stop offset="0" stop-color="#84725F"/><stop offset="0.55" stop-color="#594332"/><stop offset="1" stop-color="#45392B"/></linearGradient><linearGradient id="w20" x1="0.15" y1="0.05" x2="0.85" y2="1"><stop offset="0" stop-color="#84725F"/><stop offset="0.55" stop-color="#594332"/><stop offset="1" stop-color="#45392B"/></linearGradient><linearGradient id="w21" x1="0.15" y1="0.05" x2="0.85" y2="1"><stop offset="0" stop-color="#EAE1C8"/><stop offset="0.55" stop-color="#EAE1C8"/><stop offset="1" stop-color="#CCC6AF"/></linearGradient><linearGradient id="w22" x1="0.15" y1="0.05" x2="0.85" y2="1"><stop offset="0" stop-color="#778A6D"/><stop offset="0.55" stop-color="#466647"/><stop offset="1" stop-color="#38523A"/></linearGradient><linearGradient id="w23" x1="0.15" y1="0.05" x2="0.85" y2="1"><stop offset="0" stop-color="#EAE1C8"/><stop offset="0.55" stop-color="#EAE1C8"/><stop offset="1" stop-color="#D8D1BA"/></linearGradient><linearGradient id="w24" x1="0.15" y1="0.05" x2="0.85" y2="1"><stop offset="0" stop-color="#AB8767"/><stop offset="0.55" stop-color="#91613E"/><stop offset="1" stop-color="#6E4F34"/></linearGradient><linearGradient id="w25" x1="0.15" y1="0.05" x2="0.85" y2="1"><stop offset="0" stop-color="#AB8767"/><stop offset="0.55" stop-color="#91613E"/><stop offset="1" stop-color="#6E4F34"/></linearGradient><linearGradient id="w26" x1="0.15" y1="0.05" x2="0.85" y2="1"><stop offset="0" stop-color="#AB8767"/><stop offset="0.55" stop-color="#91613E"/><stop offset="1" stop-color="#6E4F34"/></linearGradient><linearGradient id="w27" x1="0.15" y1="0.05" x2="0.85" y2="1"><stop offset="0" stop-color="#AB8767"/><stop offset="0.55" stop-color="#91613E"/><stop offset="1" stop-color="#6E4F34"/></linearGradient><linearGradient id="w28" x1="0.15" y1="0.05" x2="0.85" y2="1"><stop offset="0" stop-color="#AB8767"/><stop offset="0.55" stop-color="#91613E"/><stop offset="1" stop-color="#6E4F34"/></linearGradient><linearGradient id="w29" x1="0.15" y1="0.05" x2="0.85" y2="1"><stop offset="0" stop-color="#AB8767"/><stop offset="0.55" stop-color="#91613E"/><stop offset="1" stop-color="#6E4F34"/></linearGradient><linearGradient id="w30" x1="0.15" y1="0.05" x2="0.85" y2="1"><stop offset="0" stop-color="#AB8767"/><stop offset="0.55" stop-color="#91613E"/><stop offset="1" stop-color="#6E4F34"/></linearGradient><linearGradient id="w31" x1="0.15" y1="0.05" x2="0.85" y2="1"><stop offset="0" stop-color="#AB8767"/><stop offset="0.55" stop-color="#91613E"/><stop offset="1" stop-color="#6E4F34"/></linearGradient><linearGradient id="w32" x1="0.15" y1="0.05" x2="0.85" y2="1"><stop offset="0" stop-color="#AB8767"/><stop offset="0.55" stop-color="#91613E"/><stop offset="1" stop-color="#6E4F34"/></linearGradient><linearGradient id="w33" x1="0.15" y1="0.05" x2="0.85" y2="1"><stop offset="0" stop-color="#AB8767"/><stop offset="0.55" stop-color="#91613E"/><stop offset="1" stop-color="#6E4F34"/></linearGradient><linearGradient id="w34" x1="0.15" y1="0.05" x2="0.85" y2="1"><stop offset="0" stop-color="#A6A698"/><stop offset="0.55" stop-color="#8A8D84"/><stop offset="1" stop-color="#686E66"/></linearGradient><linearGradient id="w35" x1="0.15" y1="0.05" x2="0.85" y2="1"><stop offset="0" stop-color="#AB8767"/><stop offset="0.55" stop-color="#91613E"/><stop offset="1" stop-color="#6E4F34"/></linearGradient><linearGradient id="w36" x1="0.15" y1="0.05" x2="0.85" y2="1"><stop offset="0" stop-color="#EAE1C8"/><stop offset="0.55" stop-color="#EAE1C8"/><stop offset="1" stop-color="#CCC6AF"/></linearGradient><linearGradient id="w37" x1="0.15" y1="0.05" x2="0.85" y2="1"><stop offset="0" stop-color="#EAE1C8"/><stop offset="0.55" stop-color="#EAE1C8"/><stop offset="1" stop-color="#C3BEA8"/></linearGradient><linearGradient id="w38" x1="0.15" y1="0.05" x2="0.85" y2="1"><stop offset="0" stop-color="#EAE1C8"/><stop offset="0.55" stop-color="#EAE1C8"/><stop offset="1" stop-color="#B6B29E"/></linearGradient><linearGradient id="w39" x1="0.15" y1="0.05" x2="0.85" y2="1"><stop offset="0" stop-color="#EAE1C8"/><stop offset="0.55" stop-color="#EAE1C8"/><stop offset="1" stop-color="#C3BEA8"/></linearGradient><linearGradient id="w40" x1="0.15" y1="0.05" x2="0.85" y2="1"><stop offset="0" stop-color="#EAE1C8"/><stop offset="0.55" stop-color="#EAE1C8"/><stop offset="1" stop-color="#B6B29E"/></linearGradient></defs>
<g transform="translate(1 1)" opacity="0.16"><path d="M5.0 15.2L9.2 7.2L13.2 6.0L17.8 11.8L16.6 16.2L7.2 16.8Z" fill="#14211B"/><path d="M3.4 17.0L6.8 14.2L10.6 15.2L11.0 19.2L6.4 20.8L3.2 19.0Z" fill="#14211B"/><path d="M12.2 16.0L15.8 13.8L20.0 15.2L20.6 18.6L16.4 20.6L12.6 19.2Z" fill="#14211B"/></g>
<path d="M5.0 15.2L9.2 7.2L13.2 6.0L17.8 11.8L16.6 16.2L7.2 16.8Z" fill="none" stroke="#F5F0DF" stroke-width="3.1" stroke-linejoin="round" stroke-linecap="round"/>
<path d="M3.4 17.0L6.8 14.2L10.6 15.2L11.0 19.2L6.4 20.8L3.2 19.0Z" fill="none" stroke="#F5F0DF" stroke-width="3.1" stroke-linejoin="round" stroke-linecap="round"/>
<path d="M12.2 16.0L15.8 13.8L20.0 15.2L20.6 18.6L16.4 20.6L12.6 19.2Z" fill="none" stroke="#F5F0DF" stroke-width="3.1" stroke-linejoin="round" stroke-linecap="round"/>
<path d="M5.0 15.2L9.2 7.2L13.2 6.0L17.8 11.8L16.6 16.2L7.2 16.8Z" fill="none" stroke="#25372D" stroke-width="1.1" stroke-linejoin="round" stroke-linecap="round"/>
<path d="M5.0 15.2L9.2 7.2L13.2 6.0L17.8 11.8L16.6 16.2L7.2 16.8Z" fill="url(#w8)"/>
<defs><clipPath id="sr"><path d="M5.0 15.2L9.2 7.2L13.2 6.0L17.8 11.8L16.6 16.2L7.2 16.8Z"/></clipPath></defs>
<g clip-path="url(#sr)"><path d="M9.2 7.2L13.2 6.0L17.8 11.8L12.4 12.6Z" fill="#EAE1C8"/><path d="M5.0 15.2L12.4 12.6L16.6 16.2L7.2 16.8Z" fill="#594332" opacity="0.55"/><path d="M9.6 8.0L12.6 7.1" stroke="#F5F0DF" stroke-width="0.6" opacity="0.8"/></g>
<path d="M3.4 17.0L6.8 14.2L10.6 15.2L11.0 19.2L6.4 20.8L3.2 19.0Z" fill="none" stroke="#25372D" stroke-width="1.1" stroke-linejoin="round" stroke-linecap="round"/>
<path d="M3.4 17.0L6.8 14.2L10.6 15.2L11.0 19.2L6.4 20.8L3.2 19.0Z" fill="url(#w9)"/>
<defs><clipPath id="sl"><path d="M3.4 17.0L6.8 14.2L10.6 15.2L11.0 19.2L6.4 20.8L3.2 19.0Z"/></clipPath></defs>
<g clip-path="url(#sl)"><path d="M3.4 17.0L6.8 14.2L10.6 15.2L5.6 17.6Z" fill="#EAE1C8" opacity="0.8"/><path d="M5.6 17.6L11.0 19.2L6.4 20.8L3.2 19.0Z" fill="#594332" opacity="0.5"/></g>
<path d="M12.2 16.0L15.8 13.8L20.0 15.2L20.6 18.6L16.4 20.6L12.6 19.2Z" fill="none" stroke="#25372D" stroke-width="1.1" stroke-linejoin="round" stroke-linecap="round"/>
<path d="M12.2 16.0L15.8 13.8L20.0 15.2L20.6 18.6L16.4 20.6L12.6 19.2Z" fill="url(#w10)"/>
<defs><clipPath id="sg"><path d="M12.2 16.0L15.8 13.8L20.0 15.2L20.6 18.6L16.4 20.6L12.6 19.2Z"/></clipPath></defs>
<g clip-path="url(#sg)"><path d="M12.2 16.0L15.8 13.8L20.0 15.2L15.0 17.4Z" fill="#EAE1C8" opacity="0.75"/><path d="M15.0 17.4L20.6 18.6L16.4 20.6L12.6 19.2Z" fill="#594332" opacity="0.55"/></g>
</svg>
